<?xml version="1.0" encoding="utf-8"?>
<!-- Generator: Adobe Illustrator 25.4.1, SVG Export Plug-In . SVG Version: 6.00 Build 0)  -->
<svg version="1.1" id="Capa_1" xmlns="http://www.w3.org/2000/svg" xmlns:xlink="http://www.w3.org/1999/xlink" x="0px" y="0px"
	 viewBox="0 0 300 300" style="enable-background:new 0 0 300 300;" xml:space="preserve">
<style type="text/css">
	.st0{fill:#FFFFFF;}
	.st1{fill:#008D36;}
</style>
<ellipse class="st0" cx="151.47" cy="150.07" rx="136.79" ry="137.35"/>
<g transform="translate(0.000000,900.000000) scale(0.100000,-0.100000)">
	<path class="st1" d="M1384.46,8707.44c-382.66-47.25-714.08-261.54-910.4-588.97c-65.88-109.81-119.12-247.57-147.74-382
		c-17.97-85.85-25.29-282.84-13.98-381.33c51.24-441.23,348.72-823.22,767.99-986.94c157.06-61.23,294.82-83.19,483.82-77.2
		c133.77,3.99,203.64,15.97,318.77,52.57c372.01,118.46,664.83,407.95,785.96,775.97c46.58,141.75,56.57,209.63,56.57,380.67
		c0,129.77-2,159.72-15.31,225.6c-99.83,493.14-473.17,867.81-963.64,965.64c-57.23,11.98-100.49,15.31-205.64,16.64
		C1467.65,8709.44,1397.11,8708.78,1384.46,8707.44z M1621.38,8657.53c273.52-27.29,506.45-133.77,700.11-320.77
		c197.65-191.66,312.12-418.6,350.05-694.12c3.33-25.95,2.66-27.95-25.29-47.92c-48.58-35.27-133.77-73.87-201.65-92.5
		c-54.57-14.64-79.86-17.3-157.72-17.97l-92.5-0.67l-12.64,36.6c-25.29,71.21-39.26,155.06-45.25,265.53
		c-3.99,71.87-10.65,128.44-19.3,161.72c-59.9,230.26-230.93,397.97-465.18,455.87c-69.21,17.3-230.93,15.31-319.44-3.33
		c-368.69-79.86-636.88-351.38-718.07-727.39c-16.64-78.53-16.64-266.2,0-345.39c49.25-228.93,173.03-427.92,345.39-557.02
		l44.59-33.27l-51.91-40.6c-27.95-22.63-69.88-60.56-92.5-83.85l-41.26-43.26l-41.93,34.61
		c-165.04,137.76-290.16,318.11-360.04,521.09c-126.45,368.02-57.9,776.64,181.02,1084.1
		C844.08,8525.76,1233.39,8696.13,1621.38,8657.53z M1626.04,8356.06c184.34-35.27,347.39-171.03,417.93-347.39
		c26.62-67.22,36.6-121.79,45.25-255.55c6.66-99.16,16.64-158.39,43.92-250.89c4.66-13.31,3.33-13.98-24.62-7.99
		c-136.43,29.95-294.82,114.47-353.38,189c-38.6,49.25-61.23,60.56-129.77,65.22c-74.54,5.32-143.75,25.29-210.96,59.89
		c-77.86,39.93-169.7,133.1-208.3,210.96c-31.28,62.56-54.57,145.08-54.57,192.33c0,29.28,1.33,31.94,31.94,51.24
		C1317.25,8350.74,1477.63,8384.01,1626.04,8356.06z M1033.08,8201c-72.54-84.52-127.78-191.66-151.07-294.82
		c-7.32-32.61-12.64-97.83-15.97-186.34c-3.99-127.11-5.99-139.09-21.3-173.7c-9.98-19.97-31.28-52.57-48.58-71.21
		c-33.94-39.26-36.6-48.58-17.3-67.88c10.65-10.65,21.96-13.31,55.9-13.31c49.91,0,43.92,9.98,63.89-103.15
		c16.64-91.84,22.63-110.47,45.25-137.76c33.94-40.6,76.53-47.92,146.41-25.95c40.6,12.64,123.78,55.24,131.1,67.22
		c7.99,13.31,16.64,5.99,23.29-21.3c15.31-59.9,53.91-173.03,76.53-221.61c15.97-35.27,20.63-51.24,14.64-53.24
		c-83.85-29.95-135.76-51.24-203.64-86.52l-82.52-42.59l-43.92,30.61c-66.55,47.25-159.05,143.75-208.97,218.95
		c-99.16,149.07-145.08,300.14-145.74,478.49c-0.67,288.16,127.11,535.73,366.69,710.75c23.29,17.3,43.26,31.28,45.25,31.28
		C1065.02,8238.93,1051.71,8221.63,1033.08,8201z M1106.95,8157.08c4.66-39.26,28.62-113.13,51.24-157.72
		c49.91-99.16,142.42-190.33,242.24-239.58c78.53-38.6,124.45-51.91,208.3-59.23c71.21-5.99,87.85-14.64,107.81-55.9
		c27.95-57.23,11.31-149.07-31.28-176.36c-13.98-9.32-14.64-8.65-18.63,11.31c-3.33,15.31-7.99,20.63-18.63,19.96
		c-37.93-1.33-37.93,3.99-0.67-182.35c19.3-95.17,43.92-210.3,55.24-256.22c21.96-91.84,21.96-93.17-21.96-93.17
		c-46.59,0-237.58-34.61-278.18-50.58c-9.32-3.33-24.62,26.62-57.9,110.47c-19.96,49.91-59.9,185.01-59.9,202.98
		c0,7.32,11.98,25.95,26.62,39.93s26.62,29.28,26.62,33.27c0,3.33-7.99,11.98-17.3,18.63l-16.64,12.64l-47.25-44.59
		c-97.16-91.84-204.31-141.09-261.54-119.12c-19.3,7.32-31.28,43.26-52.57,158.39l-21.3,113.8l-37.93,2l-37.93,2l20.63,29.95
		c40.6,59.23,47.25,91.17,53.24,248.9c5.99,165.04,11.98,197.65,58.56,296.15c29.28,61.23,105.81,169.7,119.79,169.7
		C1100.29,8192.35,1104.95,8176.38,1106.95,8157.08z M1900.22,7515.53c63.89-31.94,141.75-58.56,209.63-71.21
		c31.94-5.99,52.57-13.98,56.57-20.63c108.48-180.35,220.28-268.2,384.66-300.14c35.94-7.32,57.9-14.64,57.9-19.96
		c0-10.65-45.25-115.8-54.57-127.11c-3.99-5.32-21.96-8.65-44.59-8.65c-179.02,0-451.21,204.31-628.9,472.5
		c-39.26,58.56-70.54,113.8-70.54,123.12c0,2.66,7.99-1.33,18.63-8.65C1839,7547.48,1870.94,7530.18,1900.22,7515.53z
		 M2682.19,7507.55c0-83.19-15.31-194.99-44.59-324.76c-3.33-13.31-7.99-15.31-34.61-15.31c-43.26,0-121.79,23.29-175.69,51.24
		c-55.9,29.95-136.43,103.15-175.03,161.72l-29.28,43.26l87.85,7.32c137.76,11.98,229.6,39.26,318.77,94.5
		c23.29,13.98,44.59,24.62,47.92,23.29C2680.19,7547.48,2682.19,7528.84,2682.19,7507.55z M1898.89,7327.2
		c93.17-119.79,202.98-224.27,311.45-296.81c100.49-67.22,183.01-100.49,276.85-113.14l34.61-3.99l-23.96-37.93
		c-27.29-43.26-75.2-106.48-106.48-141.09c-21.96-23.96-21.96-23.96-56.57-17.97c-151.73,27.95-305.46,158.39-407.95,348.06
		c-54.57,101.16-123.12,299.48-139.76,402.63l-4.66,29.95l41.26-63.22C1846.32,7399.07,1880.26,7351.16,1898.89,7327.2z
		 M1756.48,7375.78c36.6-151.73,107.81-320.77,181.68-431.24c89.84-134.43,244.24-251.56,360.7-272.85l24.62-4.66l-18.63-19.96
		c-71.21-75.87-322.77-232.92-342.07-213.63c-23.96,23.96-118.46,290.82-168.37,474.5c-43.26,159.72-110.47,459.86-110.47,491.8
		c0,8.65,40.6,39.26,53.24,40.6C1739.17,7440.33,1747.82,7411.05,1756.48,7375.78z M1747.82,6883.31
		c5.99-21.3,20.63-71.21,32.61-111.8c23.96-79.19,23.29-83.19-15.31-83.19c-29.95,0-147.08-24.62-204.97-43.26
		c-42.59-13.31-54.57-13.98-113.14-9.32c-107.15,9.32-197.65,32.61-294.15,76.53c-49.25,22.63-49.91,23.29-35.27,33.27
		c22.63,15.97,130.44,65.22,193.66,87.85c115.13,42.59,302.8,83.19,400.63,87.18C1736.51,6921.24,1737.18,6921.24,1747.82,6883.31z
		 M1229.4,6628.42c33.27-10.65,86.51-24.62,117.79-30.61l56.57-11.31l-60.56-37.27c-33.94-21.3-87.85-63.22-123.12-96.5
		l-62.56-59.23l-57.9,21.3c-82.52,31.28-234.26,113.13-234.26,126.44c0,7.99,89.84,92.5,137.76,129.11l47.92,36.6l58.56-29.28
		C1141.55,6661.03,1195.46,6639.07,1229.4,6628.42z M1840.33,6590.49c9.98-28.62,31.28-81.19,46.58-117.13
		c15.97-35.27,26.62-65.88,24.62-67.22c-2.66-1.33-23.96-8.65-47.92-16.64c-129.77-41.93-297.48-61.23-435.9-48.58
		c-87.18,7.99-183.68,24.62-202.31,34.61c-17.97,9.98,89.84,100.49,173.7,146.41c115.8,62.56,297.48,116.46,398.63,119.12
		l23.96,0.67L1840.33,6590.49z"/>
</g>
</svg>
